<?xml version="1.0" encoding="UTF-8" standalone="no"?>
<!DOCTYPE svg PUBLIC "-//W3C//DTD SVG 1.1//EN"
 "http://www.w3.org/Graphics/SVG/1.1/DTD/svg11.dtd">
<!-- Generated by graphviz version 14.0.5 (0)
 -->
<!-- Title: ProblemGraph Pages: 1 -->
<svg width="1705pt" height="1863pt"
 viewBox="0.00 0.00 1705.00 1863.00" xmlns="http://www.w3.org/2000/svg" xmlns:xlink="http://www.w3.org/1999/xlink">
<g id="graph0" class="graph" transform="scale(1 1) rotate(0) translate(4 1858.83)">
<title>ProblemGraph</title>
<polygon fill="white" stroke="none" points="-4,4 -4,-1858.83 1700.87,-1858.83 1700.87,4 -4,4"/>
<!-- 0 -->
<g id="node1" class="node">
<title>0</title>
<polygon fill="lightyellow" stroke="black" points="1117.25,-1393.08 880,-1393.08 880,-1357.08 1117.25,-1357.08 1117.25,-1393.08"/>
<text xml:space="preserve" text-anchor="middle" x="998.62" y="-1370.41" font-family="Times,serif" font-size="14.00">Longest Palindromic Substring</text>
</g>
<!-- 4 -->
<g id="node5" class="node">
<title>4</title>
<polygon fill="lightyellow" stroke="black" points="1696.87,-1382.77 1493.37,-1382.77 1493.37,-1346.77 1696.87,-1346.77 1696.87,-1382.77"/>
<text xml:space="preserve" text-anchor="middle" x="1595.12" y="-1360.09" font-family="Times,serif" font-size="14.00">Reverse Words in a String</text>
</g>
<!-- 0&#45;&#45;4 -->
<g id="edge4" class="edge">
<title>0&#45;&#45;4</title>
<path fill="none" stroke="gray" stroke-dasharray="5,2" d="M1117.54,-1373.02C1227.49,-1371.12 1389.16,-1368.33 1493.3,-1366.53"/>
</g>
<!-- 10 -->
<g id="node11" class="node">
<title>10</title>
<polygon fill="lightgreen" stroke="black" points="1413.04,-1854.83 1205.04,-1854.83 1205.04,-1818.83 1413.04,-1818.83 1413.04,-1854.83"/>
<text xml:space="preserve" text-anchor="middle" x="1309.04" y="-1832.16" font-family="Times,serif" font-size="14.00">Reverse Vowels of a String</text>
</g>
<!-- 0&#45;&#45;10 -->
<g id="edge5" class="edge">
<title>0&#45;&#45;10</title>
<path fill="none" stroke="gray" stroke-dasharray="5,2" d="M1010.99,-1393.47C1060.83,-1467.61 1246.74,-1744.16 1296.64,-1818.39"/>
</g>
<!-- 11 -->
<g id="node12" class="node">
<title>11</title>
<polygon fill="lightgreen" stroke="black" points="1661.64,-1697.46 1533.89,-1697.46 1533.89,-1661.46 1661.64,-1661.46 1661.64,-1697.46"/>
<text xml:space="preserve" text-anchor="middle" x="1597.76" y="-1674.78" font-family="Times,serif" font-size="14.00">Is Subsequence</text>
</g>
<!-- 0&#45;&#45;11 -->
<g id="edge6" class="edge">
<title>0&#45;&#45;11</title>
<path fill="none" stroke="gray" stroke-dasharray="5,2" d="M1034.75,-1393.44C1141.52,-1447.67 1454.76,-1606.81 1561.59,-1661.08"/>
</g>
<!-- 13 -->
<g id="node14" class="node">
<title>13</title>
<polygon fill="lightgreen" stroke="black" points="1121.92,-1708.17 912.42,-1708.17 912.42,-1672.17 1121.92,-1672.17 1121.92,-1708.17"/>
<text xml:space="preserve" text-anchor="middle" x="1017.17" y="-1685.49" font-family="Times,serif" font-size="14.00">Backspace String Compare</text>
</g>
<!-- 0&#45;&#45;13 -->
<g id="edge7" class="edge">
<title>0&#45;&#45;13</title>
<path fill="none" stroke="gray" stroke-dasharray="5,2" d="M999.7,-1393.38C1002.98,-1449.07 1012.81,-1616.06 1016.09,-1671.82"/>
</g>
<!-- 17 -->
<g id="node18" class="node">
<title>17</title>
<polygon fill="lightgreen" stroke="black" points="1396.97,-1175.91 1193.47,-1175.91 1193.47,-1139.91 1396.97,-1139.91 1396.97,-1175.91"/>
<text xml:space="preserve" text-anchor="middle" x="1295.22" y="-1153.23" font-family="Times,serif" font-size="14.00">Merge Strings Alternately</text>
</g>
<!-- 0&#45;&#45;17 -->
<g id="edge8" class="edge">
<title>0&#45;&#45;17</title>
<path fill="none" stroke="gray" stroke-dasharray="5,2" d="M1023.66,-1356.75C1079.66,-1315.75 1214.52,-1217 1270.36,-1176.11"/>
</g>
<!-- 1 -->
<g id="node2" class="node">
<title>1</title>
<polygon fill="lightyellow" stroke="black" points="673.05,-686.89 460.55,-686.89 460.55,-650.89 673.05,-650.89 673.05,-686.89"/>
<text xml:space="preserve" text-anchor="middle" x="566.8" y="-664.21" font-family="Times,serif" font-size="14.00">Container With Most Water</text>
</g>
<!-- 2 -->
<g id="node3" class="node">
<title>2</title>
<polygon fill="lightgreen" stroke="black" points="860.43,-254.35 572.18,-254.35 572.18,-218.35 860.43,-218.35 860.43,-254.35"/>
<text xml:space="preserve" text-anchor="middle" x="716.31" y="-231.67" font-family="Times,serif" font-size="14.00">Remove Duplicates from Sorted Array</text>
</g>
<!-- 1&#45;&#45;2 -->
<g id="edge9" class="edge">
<title>1&#45;&#45;2</title>
<path fill="none" stroke="gray" stroke-dasharray="5,2" d="M573.13,-650.58C597.58,-579.83 685.75,-324.76 710.06,-254.42"/>
</g>
<!-- 3 -->
<g id="node4" class="node">
<title>3</title>
<polygon fill="lightgreen" stroke="black" points="503.11,-36 365.61,-36 365.61,0 503.11,0 503.11,-36"/>
<text xml:space="preserve" text-anchor="middle" x="434.36" y="-13.32" font-family="Times,serif" font-size="14.00">Remove Element</text>
</g>
<!-- 1&#45;&#45;3 -->
<g id="edge10" class="edge">
<title>1&#45;&#45;3</title>
<path fill="none" stroke="gray" stroke-dasharray="5,2" d="M563.05,-650.46C543.9,-556.33 457.16,-130.02 438.08,-36.27"/>
</g>
<!-- 8 -->
<g id="node9" class="node">
<title>8</title>
<polygon fill="lightgreen" stroke="black" points="177.27,-574.3 64.95,-574.3 64.95,-538.3 177.27,-538.3 177.27,-574.3"/>
<text xml:space="preserve" text-anchor="middle" x="121.11" y="-551.62" font-family="Times,serif" font-size="14.00">Move Zeroes</text>
</g>
<!-- 1&#45;&#45;8 -->
<g id="edge11" class="edge">
<title>1&#45;&#45;8</title>
<path fill="none" stroke="gray" stroke-dasharray="5,2" d="M493.7,-650.42C405.17,-628.06 257.95,-590.87 177.63,-570.57"/>
</g>
<!-- 9 -->
<g id="node10" class="node">
<title>9</title>
<polygon fill="lightyellow" stroke="black" points="1188.41,-1014.65 945.91,-1014.65 945.91,-978.65 1188.41,-978.65 1188.41,-1014.65"/>
<text xml:space="preserve" text-anchor="middle" x="1067.16" y="-991.98" font-family="Times,serif" font-size="14.00">Increasing Triplet Subsequence</text>
</g>
<!-- 1&#45;&#45;9 -->
<g id="edge27" class="edge">
<title>1&#45;&#45;9</title>
<path fill="none" stroke="gray" stroke-dasharray="5,2" d="M594.77,-687.21C682.45,-744.64 951.25,-920.72 1039.07,-978.25"/>
</g>
<!-- 12 -->
<g id="node13" class="node">
<title>12</title>
<polygon fill="lightgreen" stroke="black" points="680.69,-1279.97 532.69,-1279.97 532.69,-1243.97 680.69,-1243.97 680.69,-1279.97"/>
<text xml:space="preserve" text-anchor="middle" x="606.69" y="-1257.29" font-family="Times,serif" font-size="14.00">Can Place Flowers</text>
</g>
<!-- 1&#45;&#45;12 -->
<g id="edge28" class="edge">
<title>1&#45;&#45;12</title>
<path fill="none" stroke="gray" stroke-dasharray="5,2" d="M568.04,-687.29C573.98,-775.57 599.5,-1155.04 605.45,-1243.49"/>
</g>
<!-- 14 -->
<g id="node15" class="node">
<title>14</title>
<polygon fill="lightgreen" stroke="black" points="202,-216.27 0,-216.27 0,-180.27 202,-180.27 202,-216.27"/>
<text xml:space="preserve" text-anchor="middle" x="101" y="-193.59" font-family="Times,serif" font-size="14.00">Squares of a Sorted Array</text>
</g>
<!-- 1&#45;&#45;14 -->
<g id="edge12" class="edge">
<title>1&#45;&#45;14</title>
<path fill="none" stroke="gray" stroke-dasharray="5,2" d="M548.54,-650.44C474.03,-575.16 193.41,-291.64 119.13,-216.59"/>
</g>
<!-- 2&#45;&#45;3 -->
<g id="edge1" class="edge">
<title>2&#45;&#45;3</title>
<path fill="none" stroke="blue" stroke-width="2" d="M692.75,-218.11C639.68,-177.01 511.24,-77.54 458.05,-36.34"/>
</g>
<!-- 2&#45;&#45;8 -->
<g id="edge13" class="edge">
<title>2&#45;&#45;8</title>
<path fill="none" stroke="gray" stroke-dasharray="5,2" d="M682.17,-254.7C577.31,-311.07 260.65,-481.29 155.48,-537.82"/>
</g>
<!-- 2&#45;&#45;14 -->
<g id="edge14" class="edge">
<title>2&#45;&#45;14</title>
<path fill="none" stroke="gray" stroke-dasharray="5,2" d="M572.04,-227.42C458.38,-220.38 302.79,-210.76 202.09,-204.52"/>
</g>
<!-- 3&#45;&#45;8 -->
<g id="edge2" class="edge">
<title>3&#45;&#45;8</title>
<path fill="none" stroke="blue" stroke-width="2" d="M423.76,-36.22C375.88,-118.5 180.07,-454.97 131.87,-537.81"/>
</g>
<!-- 3&#45;&#45;14 -->
<g id="edge15" class="edge">
<title>3&#45;&#45;14</title>
<path fill="none" stroke="gray" stroke-dasharray="5,2" d="M400.25,-36.44C336.2,-71.08 198.64,-145.47 134.81,-179.98"/>
</g>
<!-- 4&#45;&#45;10 -->
<g id="edge16" class="edge">
<title>4&#45;&#45;10</title>
<path fill="none" stroke="gray" stroke-dasharray="5,2" d="M1584.08,-1382.98C1538.59,-1458.05 1365.92,-1742.98 1320.2,-1818.42"/>
</g>
<!-- 4&#45;&#45;11 -->
<g id="edge17" class="edge">
<title>4&#45;&#45;11</title>
<path fill="none" stroke="gray" stroke-dasharray="5,2" d="M1595.28,-1383.05C1595.74,-1438.67 1597.14,-1605.44 1597.61,-1661.13"/>
</g>
<!-- 4&#45;&#45;13 -->
<g id="edge18" class="edge">
<title>4&#45;&#45;13</title>
<path fill="none" stroke="gray" stroke-dasharray="5,2" d="M1562.39,-1383.19C1460.79,-1440.4 1151.5,-1614.54 1049.9,-1671.74"/>
</g>
<!-- 4&#45;&#45;17 -->
<g id="edge19" class="edge">
<title>4&#45;&#45;17</title>
<path fill="none" stroke="gray" stroke-dasharray="5,2" d="M1568.51,-1346.41C1511.6,-1307.15 1378.64,-1215.44 1321.78,-1176.22"/>
</g>
<!-- 5 -->
<g id="node6" class="node">
<title>5</title>
<polygon fill="lightyellow" stroke="black" points="1106,-400 880,-400 880,-364 1106,-364 1106,-400"/>
<text xml:space="preserve" text-anchor="middle" x="993" y="-377.33" font-family="Times,serif" font-size="14.00">Minimum Size Subarray Sum</text>
</g>
<!-- 6 -->
<g id="node7" class="node">
<title>6</title>
<polygon fill="lightyellow" stroke="black" points="1397.88,-356 1177.13,-356 1177.13,-320 1397.88,-320 1397.88,-356"/>
<text xml:space="preserve" text-anchor="middle" x="1287.5" y="-333.32" font-family="Times,serif" font-size="14.00">Product of Array Except Self</text>
</g>
<!-- 5&#45;&#45;6 -->
<g id="edge29" class="edge">
<title>5&#45;&#45;6</title>
<path fill="none" stroke="gray" stroke-dasharray="5,2" d="M1106.44,-365.05C1129.61,-361.59 1153.96,-357.95 1177.03,-354.51"/>
</g>
<!-- 7 -->
<g id="node8" class="node">
<title>7</title>
<polygon fill="lightyellow" stroke="black" points="1372.79,-596 1248.79,-596 1248.79,-560 1372.79,-560 1372.79,-596"/>
<text xml:space="preserve" text-anchor="middle" x="1310.79" y="-573.33" font-family="Times,serif" font-size="14.00">Zigzag Iterator</text>
</g>
<!-- 7&#45;&#45;17 -->
<g id="edge3" class="edge">
<title>7&#45;&#45;17</title>
<path fill="none" stroke="blue" stroke-width="2" d="M1310.3,-596.31C1307.97,-683.14 1298.04,-1052.75 1295.71,-1139.59"/>
</g>
<!-- 8&#45;&#45;14 -->
<g id="edge20" class="edge">
<title>8&#45;&#45;14</title>
<path fill="none" stroke="gray" stroke-dasharray="5,2" d="M120.09,-538.05C116.64,-476.63 105.47,-277.84 102.02,-216.48"/>
</g>
<!-- 9&#45;&#45;12 -->
<g id="edge30" class="edge">
<title>9&#45;&#45;12</title>
<path fill="none" stroke="gray" stroke-dasharray="5,2" d="M1035.15,-1015.1C950.81,-1063.69 723.24,-1194.81 638.8,-1243.47"/>
</g>
<!-- 10&#45;&#45;11 -->
<g id="edge21" class="edge">
<title>10&#45;&#45;11</title>
<path fill="none" stroke="gray" stroke-dasharray="5,2" d="M1342.73,-1818.47C1398.21,-1788.23 1508.21,-1728.27 1563.85,-1697.95"/>
</g>
<!-- 10&#45;&#45;13 -->
<g id="edge22" class="edge">
<title>10&#45;&#45;13</title>
<path fill="none" stroke="gray" stroke-dasharray="5,2" d="M1272.37,-1818.41C1216.33,-1790.25 1110.01,-1736.82 1053.92,-1708.63"/>
</g>
<!-- 10&#45;&#45;17 -->
<g id="edge23" class="edge">
<title>10&#45;&#45;17</title>
<path fill="none" stroke="gray" stroke-dasharray="5,2" d="M1308.67,-1818.67C1306.71,-1722.41 1297.56,-1272.53 1295.59,-1176.12"/>
</g>
<!-- 11&#45;&#45;13 -->
<g id="edge24" class="edge">
<title>11&#45;&#45;13</title>
<path fill="none" stroke="gray" stroke-dasharray="5,2" d="M1533.41,-1680.65C1433.99,-1682.48 1242.03,-1686.02 1122.27,-1688.23"/>
</g>
<!-- 11&#45;&#45;17 -->
<g id="edge25" class="edge">
<title>11&#45;&#45;17</title>
<path fill="none" stroke="gray" stroke-dasharray="5,2" d="M1587.17,-1661.2C1540.42,-1580.61 1352.77,-1257.12 1305.88,-1176.29"/>
</g>
<!-- 13&#45;&#45;17 -->
<g id="edge26" class="edge">
<title>13&#45;&#45;17</title>
<path fill="none" stroke="gray" stroke-dasharray="5,2" d="M1026.74,-1671.85C1069.52,-1589.95 1242.99,-1257.89 1285.69,-1176.15"/>
</g>
<!-- 15 -->
<g id="node16" class="node">
<title>15</title>
<polygon fill="lightgreen" stroke="black" points="436.25,-1156 160,-1156 160,-1120 436.25,-1120 436.25,-1156"/>
<text xml:space="preserve" text-anchor="middle" x="298.12" y="-1133.33" font-family="Times,serif" font-size="14.00">Greatest Common Divisor of Strings</text>
</g>
<!-- 16 -->
<g id="node17" class="node">
<title>16</title>
<polygon fill="lightgreen" stroke="black" points="1202.75,-596 880,-596 880,-560 1202.75,-560 1202.75,-596"/>
<text xml:space="preserve" text-anchor="middle" x="1041.38" y="-573.33" font-family="Times,serif" font-size="14.00">Kids With the Greatest Number of Candies</text>
</g>
</g>
</svg>
